<svg xmlns="http://www.w3.org/2000/svg" width="33" height="39">
    <path fill="none" fill-rule="evenodd" stroke="#fff" stroke-width="2" d="M22.749 30.988l-13.5-9.003M22.749 9.486l-12.75 7.513M5.999 13.997c2.762 0 5 2.237 5 4.998 0 2.764-2.238 5-5 5-2.761 0-5-2.236-5-5 0-2.761 2.239-4.998 5-4.998zM25.999.996c2.762 0 5 2.239 5 5s-2.238 5-5 5c-2.761 0-5-2.239-5-5s2.239-5 5-5zM25.999 26.996c2.762 0 5 2.237 5 5.001 0 2.761-2.238 4.999-5 4.999-2.761 0-5-2.238-5-4.999 0-2.764 2.239-5.001 5-5.001z"/>
</svg>
